HIERARCHY
ROOT Hips
{
 OFFSET 0.000000 0.000000 0.000000
 CHANNELS 6 Xposition Yposition Zposition Yrotation Xrotation Zrotation
 JOINT Chest
 {
  OFFSET 0.000000 11.395451 -0.039534
  CHANNELS 3 Yrotation Xrotation Zrotation
  JOINT Chest2
  {
   OFFSET 0.000000 9.398669 0.071813
   CHANNELS 3 Yrotation Xrotation Zrotation
   JOINT Chest3
   {
    OFFSET 0.000000 8.489801 0.000000
    CHANNELS 3 Yrotation Xrotation Zrotation
    JOINT Chest4
    {
     OFFSET 0.000000 8.489801 0.000000
     CHANNELS 3 Yrotation Xrotation Zrotation
     JOINT Neck
     {
      OFFSET 0.000000 12.404889 0.000000
      CHANNELS 3 Yrotation Xrotation Zrotation
      JOINT Head
      {
       OFFSET 0.000000 8.903270 0.092239
       CHANNELS 3 Yrotation Xrotation Zrotation
       End Site
       {
        OFFSET 0.000000 17.592497 0.007158
       }
      }
     }
     JOINT RightCollar
     {
      OFFSET -3.196775 6.966722 0.000000
      CHANNELS 3 Yrotation Xrotation Zrotation
      JOINT RightShoulder
      {
       OFFSET -15.955896 0.000000 0.000000
       CHANNELS 3 Yrotation Xrotation Zrotation
       JOINT RightElbow
       {
        OFFSET -24.792472 0.000000 0.000000
        CHANNELS 3 Yrotation Xrotation Zrotation
        JOINT RightWrist
        {
         OFFSET -20.900115 0.000000 0.025002
         CHANNELS 3 Yrotation Xrotation Zrotation
         End Site
         {
          OFFSET -16.056692 0.000000 0.000000
         }
        }
       }
      }
     }
     JOINT LeftCollar
     {
      OFFSET 3.196775 6.966722 0.000000
      CHANNELS 3 Yrotation Xrotation Zrotation
      JOINT LeftShoulder
      {
       OFFSET 15.955896 0.000000 0.000000
       CHANNELS 3 Yrotation Xrotation Zrotation
       JOINT LeftElbow
       {
        OFFSET 24.792472 0.000000 0.000000
        CHANNELS 3 Yrotation Xrotation Zrotation
        JOINT LeftWrist
        {
         OFFSET 20.900115 0.000000 0.025002
         CHANNELS 3 Yrotation Xrotation Zrotation
         End Site
         {
          OFFSET 16.056692 0.000000 0.000000
         }
        }
       }
      }
     }
    }
   }
  }
 }
 JOINT RightHip
 {
  OFFSET -9.568995 0.193718 0.019767
  CHANNELS 3 Yrotation Xrotation Zrotation
  JOINT RightKnee
  {
   OFFSET 0.000000 -56.649296 0.015402
   CHANNELS 3 Yrotation Xrotation Zrotation
   JOINT RightAnkle
   {
    OFFSET 0.000000 -41.365147 0.021264
    CHANNELS 3 Yrotation Xrotation Zrotation
    JOINT RightToe
    {
     OFFSET 0.000000 -7.465940 17.672538
     CHANNELS 3 Yrotation Xrotation Zrotation
     End Site
     {
      OFFSET 0.000000 -1.736315 7.837145
     }
    }
   }
  }
 }
 JOINT LeftHip
 {
  OFFSET 9.568995 0.193718 0.019767
  CHANNELS 3 Yrotation Xrotation Zrotation
  JOINT LeftKnee
  {
   OFFSET 0.000000 -56.649296 0.015402
   CHANNELS 3 Yrotation Xrotation Zrotation
   JOINT LeftAnkle
   {
    OFFSET 0.000000 -41.365147 0.021264
    CHANNELS 3 Yrotation Xrotation Zrotation
    JOINT LeftToe
    {
     OFFSET 0.000000 -7.465940 17.672538
     CHANNELS 3 Yrotation Xrotation Zrotation
     End Site
     {
      OFFSET 0.000000 -1.736315 7.837145
     }
    }
   }
  }
 }
}
MOTION
Frames: 12
Frame Time: 0.016667
-8.881884 106.642440 521.975007 52.638978 0.294642 -3.141467 -0.389733 5.359489 -0.645831 -0.165557 2.382553 -0.282210 -0.165559 2.382562 -0.282212 -0.123052 1.787003 -0.210983 -15.373559 15.107643 4.459906 -30.231963 -5.457076 13.698105 -1.990543 2.608619 8.321105 15.127238 -15.359075 54.456273 48.708860 -41.937378 27.725742 -9.375925 -15.531261 2.335322 2.822535 -1.503264 -4.652078 8.189711 -15.574645 -45.027030 -25.972333 -61.220820 -62.133273 18.680327 -14.630955 12.973136 -12.057355 -27.471106 -7.638213 0.962602 44.415491 -0.692477 18.482122 -12.679263 21.457863 -0.000000 -0.000000 0.000000 6.488412 -2.238323 4.412480 0.486899 12.215645 0.276803 8.731082 -11.703009 -0.331602 0.000000 0.000000 0.000000
-9.061514 106.632563 522.517175 52.318405 0.080114 -3.168717 -0.346657 5.289608 -0.652624 -0.146458 2.351430 -0.285784 -0.146460 2.351434 -0.285785 -0.108731 1.763647 -0.213746 -15.341315 15.215975 4.520439 -30.167857 -5.251505 13.768850 -2.078217 2.488550 8.403963 14.444251 -15.137838 54.522385 48.351474 -41.744150 28.323861 -9.377090 -15.578561 2.472336 2.790412 -1.375745 -4.643383 7.964686 -15.367414 -45.130198 -26.512402 -61.493584 -61.746506 18.882199 -14.586194 13.181178 -10.222272 -27.346653 -9.231201 -1.067084 44.359668 -1.894591 18.383214 -12.567636 19.580002 0.000000 -0.000000 -0.000000 6.564627 -1.583025 4.937807 0.889496 11.436406 0.005960 8.499480 -11.432080 -0.521818 0.000000 -0.000000 0.000000
-9.215890 106.601934 523.084148 52.030004 -0.125002 -3.126378 -0.326056 5.227851 -0.675397 -0.137143 2.323961 -0.296178 -0.137143 2.323961 -0.296178 -0.101716 1.743038 -0.221581 -15.308384 15.282706 4.582041 -30.112465 -5.121049 13.852888 -2.163876 2.376943 8.464570 13.879585 -14.944857 54.545130 48.107582 -41.582440 28.790213 -9.381925 -15.600691 2.611870 2.775688 -1.273028 -4.658923 7.832628 -15.148865 -45.253600 -27.085899 -61.655686 -61.327853 18.993588 -14.598410 13.281029 -8.504763 -27.013360 -10.771450 -2.083705 43.957782 -2.530781 17.984883 -12.274354 17.719491 -0.000000 0.000000 -0.000000 6.787258 -0.933584 5.350957 1.157470 10.683870 -0.176014 8.257458 -11.187598 -0.741135 0.000000 0.000000 0.000000
-9.301307 106.552820 523.670548 51.719434 -0.339818 -2.993450 -0.316292 5.184340 -0.718842 -0.132387 2.304642 -0.315611 -0.132386 2.304644 -0.315611 -0.098085 1.728553 -0.236177 -15.270659 15.293520 4.631832 -30.057090 -5.096445 13.929287 -2.243415 2.285980 8.492429 13.586764 -14.741761 54.480534 48.046525 -41.523025 28.993550 -9.363154 -15.593369 2.752760 2.793851 -1.205999 -4.713052 7.924176 -14.993262 -45.408389 -27.627171 -61.545856 -60.972406 18.986106 -14.699138 13.213106 -7.026188 -26.456895 -12.132453 -1.093903 43.179700 -2.118313 16.861915 -11.602677 15.905108 0.000000 -0.000000 -0.000000 7.096170 -0.186839 5.564590 1.359719 9.835353 -0.147691 8.080752 -10.925660 -1.025233 0.000000 0.000000 0.000000
-9.361470 106.482955 524.281753 51.440208 -0.544092 -2.791131 -0.328677 5.148666 -0.778604 -0.137281 2.288849 -0.342037 -0.137281 2.288851 -0.342037 -0.101666 1.716716 -0.255979 -15.231792 15.262783 4.683208 -30.009355 -5.146883 14.019417 -2.320160 2.202895 8.498083 13.410862 -14.568957 54.379788 48.095129 -41.500319 29.069890 -9.347007 -15.561443 2.896414 2.829642 -1.164081 -4.790635 8.107894 -14.825778 -45.580306 -28.179375 -61.326950 -60.606921 18.885493 -14.853680 13.038637 -5.687965 -25.704085 -13.425092 0.811724 41.999010 -1.243432 15.455425 -10.661227 14.106425 0.000000 0.000000 0.000000 7.545326 0.552896 5.672549 1.423262 9.009040 -0.029287 7.892961 -10.690824 -1.337890 0.000000 0.000000 0.000000
-9.476012 106.386992 524.916242 51.268199 -0.688246 -2.536630 -0.372766 5.110733 -0.860092 -0.156023 2.272123 -0.377763 -0.156023 2.272123 -0.377763 -0.115597 1.704190 -0.282704 -15.209848 15.210697 4.729186 -29.995884 -5.233163 14.110616 -2.398861 2.131452 8.502646 13.263131 -14.461365 54.284441 48.177250 -41.471255 29.117424 -9.319119 -15.523731 3.008614 2.828076 -1.146419 -4.872526 8.260018 -14.652702 -45.744797 -28.696422 -61.146313 -60.203286 18.731476 -14.987475 12.839980 -4.369529 -24.775523 -14.767130 1.969812 40.468360 -0.702916 14.144088 -9.979260 12.393563 0.000000 -0.000000 0.000000 7.927114 1.042433 5.754059 1.331062 8.576989 0.065307 7.816668 -10.631896 -1.652702 0.000000 0.000000 0.000000
-9.685034 106.260254 525.559397 51.293104 -0.738429 -2.225254 -0.480208 5.067594 -0.970429 -0.202602 2.253257 -0.425619 -0.202601 2.253256 -0.425619 -0.150361 1.690085 -0.318427 -15.211133 15.138480 4.777181 -30.030676 -5.349252 14.218184 -2.477122 2.059124 8.522376 13.100585 -14.432250 54.208855 48.284835 -41.414384 29.164441 -9.262665 -15.482256 3.073904 2.752233 -1.158549 -4.954079 8.333789 -14.465774 -45.883317 -29.167461 -61.059055 -59.733626 18.498778 -15.076944 12.627838 -2.927900 -23.623616 -16.280729 1.636207 38.634794 -0.764472 13.105291 -9.841449 10.748395 0.000000 -0.000000 -0.000000 8.227870 1.100412 5.820176 0.924113 8.792646 0.087813 7.918210 -10.854108 -1.942050 0.000000 0.000000 -0.000000
-9.948433 106.107418 526.225836 51.426011 -0.730323 -1.862677 -0.619347 5.021707 -1.102632 -0.263049 2.233331 -0.482868 -0.263049 2.233332 -0.482869 -0.195496 1.675209 -0.361145 -15.229186 15.044663 4.819735 -30.099655 -5.501686 14.327045 -2.557467 1.998530 8.540922 12.965656 -14.467836 54.141214 48.426023 -41.351286 29.183079 -9.194352 -15.434214 3.107802 2.639063 -1.195178 -5.039961 8.376021 -14.273478 -46.015382 -29.609442 -61.010515 -59.219381 18.213491 -15.146537 12.391471 -1.543801 -22.276022 -17.815218 0.629851 36.506255 -1.056051 12.177438 -10.016437 9.174236 -0.000000 0.000000 -0.000000 8.463499 0.908391 5.855054 0.353570 9.398847 0.085823 8.135672 -11.249125 -2.234508 0.000000 0.000000 -0.000000
-10.225536 105.937165 526.957888 51.474967 -0.717723 -1.482035 -0.704717 4.971650 -1.240861 -0.299598 2.211497 -0.543402 -0.299598 2.211497 -0.543402 -0.222704 1.658891 -0.406417 -15.262973 14.945182 4.827271 -30.187540 -5.670622 14.378662 -2.652290 1.991209 8.530073 12.897786 -14.561995 54.082952 48.549441 -41.302491 29.186421 -9.150445 -15.390599 3.122231 2.544284 -1.239032 -5.125388 8.403584 -14.107666 -46.174244 -30.025474 -60.983091 -58.699205 17.993056 -15.193609 12.179868 -0.556725 -20.888686 -19.105677 -0.295737 34.131783 -1.324867 11.228384 -10.308004 7.756779 0.000000 0.000000 0.000000 8.471204 0.764825 5.895797 0.071200 10.006668 0.096152 8.398791 -11.644534 -2.586283 0.000000 0.000000 0.000000
-10.499104 105.751393 527.765248 51.377948 -0.711179 -1.087139 -0.698971 4.920284 -1.381633 -0.295695 2.188861 -0.606059 -0.295695 2.188861 -0.606058 -0.219572 1.641940 -0.453429 -15.321755 14.834626 4.791708 -30.310012 -5.865750 14.362631 -2.781564 2.073576 8.462395 12.906337 -14.741659 54.050086 48.641951 -41.271034 29.181173 -9.138936 -15.355793 3.113950 2.482859 -1.276509 -5.215007 8.378957 -13.995523 -46.370361 -30.453634 -60.981354 -58.127721 17.882265 -15.223529 11.999981 0.040238 -19.477579 -20.136812 -0.947185 31.435767 -1.472332 10.179374 -10.717193 6.517018 -0.000000 0.000000 0.000000 8.105682 0.768278 5.946016 0.323411 10.496319 0.131721 8.674390 -11.990503 -3.016113 0.000000 0.000000 0.000000
-10.786374 105.548203 528.638221 51.197020 -0.697995 -0.674235 -0.639358 4.865777 -1.528359 -0.267854 2.164664 -0.671933 -0.267852 2.164665 -0.671934 -0.198484 1.623796 -0.502942 -15.395894 14.718166 4.721047 -30.450649 -6.078020 14.289166 -2.925694 2.208802 8.364686 12.981633 -14.979366 54.027149 48.716870 -41.253015 29.159944 -9.151989 -15.324844 3.086025 2.439872 -1.320821 -5.304187 8.339906 -13.909693 -46.592975 -30.859882 -61.000901 -57.547403 17.836776 -15.230970 11.844126 0.269857 -18.067219 -20.967829 -1.506753 28.486320 -1.569819 9.115290 -11.260120 5.429973 0.000000 0.000000 0.000000 7.510836 0.815442 6.002026 0.864590 10.996101 0.182394 8.996262 -12.334819 -3.506186 0.000000 0.000000 0.000000
-11.098380 105.330585 529.590058 50.925686 -0.695136 -0.265186 -0.552033 4.799841 -1.675440 -0.227782 2.135243 -0.738253 -0.227782 2.135243 -0.738253 -0.168237 1.601710 -0.552829 -15.455924 14.627567 4.609864 -30.545591 -6.259518 14.130270 -3.037373 2.328654 8.290025 13.135041 -15.187365 53.967749 48.762746 -41.258211 29.114009 -9.202094 -15.294993 3.059773 2.426358 -1.394771 -5.374302 8.416221 -13.799805 -46.842564 -31.136851 -61.012237 -57.131163 17.840119 -15.196357 11.739194 -0.137280 -16.859196 -21.490921 -1.803962 25.534691 -1.653384 8.141196 -11.758876 4.510319 0.000000 0.000000 0.000000 6.954908 0.903449 6.093177 1.413975 11.491161 0.256795 9.391797 -12.651416 -4.055985 0.000000 -0.000000 0.000000
